<svg width="58" height="42" viewBox="0 0 58 42" fill="none" xmlns="http://www.w3.org/2000/svg">
<path d="M0.432133 42V21V0H38.2515C42.1771 0 45.5361 0.640002 48.3285 1.92C51.1614 3.16 53.3468 4.96 54.8847 7.32C56.4226 9.68 57.1915 12.48 57.1915 15.72C57.1915 18.96 56.4226 21.76 54.8847 24.12C53.3468 26.44 51.1412 28.24 48.2678 29.52C45.3945 30.76 41.9747 31.38 38.0086 31.38H13.848V42H0.432133ZM35.884 10.08H13.848L0 21.3H35.884C40.9427 21.3 43.4721 19.46 43.4721 15.78C43.4721 11.98 40.9427 10.08 35.884 10.08Z" fill="white"/>
</svg>
