<svg width="336" height="247" viewBox="0 0 336 247" fill="none" xmlns="http://www.w3.org/2000/svg">
<path d="M2.53878 247V123.5V0H224.727C247.79 0 267.525 3.76382 283.93 11.2914C300.573 18.5838 313.413 29.1695 322.448 43.0486C331.483 56.9276 336 73.3943 336 92.4486C336 111.503 331.483 127.97 322.448 141.849C313.413 155.492 300.455 166.078 283.573 173.606C266.692 180.898 246.601 184.544 223.301 184.544H81.3569V247H2.53878ZM210.818 59.28H81.3569L0 125.264H210.818C240.539 125.264 255.399 114.443 255.399 92.8014C255.399 70.4538 240.539 59.28 210.818 59.28Z" fill="white"/>
</svg>
